<svg width="124" height="125" viewBox="0 0 124 125" fill="none" xmlns="http://www.w3.org/2000/svg">
<g id="&#240;&#159;&#166;&#134; icon &#34;Compass&#34;" filter="url(#filter0_d_29_1592)">
<path id="Vector" d="M56.7063 53.2073C53.7828 56.1308 53.7828 60.8692 56.7063 63.7903C59.6274 66.7138 64.3681 66.7138 67.2892 63.7903C70.2127 60.8668 70.2127 56.1285 67.2892 53.2073C64.3658 50.2862 59.6274 50.2862 56.7063 53.2073ZM61.9966 0.498291C29.9623 0.498291 3.99487 26.4658 3.99487 58.5C3.99487 90.5343 29.9623 116.502 61.9966 116.502C94.0308 116.502 119.998 90.5343 119.998 58.5C119.998 26.4658 94.0308 0.498291 61.9966 0.498291ZM91.4979 35.1239L76.069 68.8842C75.3227 70.5168 74.0134 71.8262 72.3808 72.5724L38.6228 88.0014C34.7288 89.7812 30.7154 85.7678 32.4952 81.8738L47.9265 48.1135C48.6728 46.4808 49.9821 45.1715 51.6147 44.4252L85.3727 28.9963C89.2667 27.2188 93.2778 31.2298 91.4979 35.1239Z" fill="white"/>
</g>
<defs>
<filter id="filter0_d_29_1592" x="-0.00512695" y="0.498291" width="124.003" height="124.003" filterUnits="userSpaceOnUse" color-interpolation-filters="sRGB">
<feFlood flood-opacity="0" result="BackgroundImageFix"/>
<feColorMatrix in="SourceAlpha" type="matrix" values="0 0 0 0 0 0 0 0 0 0 0 0 0 0 0 0 0 0 127 0" result="hardAlpha"/>
<feOffset dy="4"/>
<feGaussianBlur stdDeviation="2"/>
<feComposite in2="hardAlpha" operator="out"/>
<feColorMatrix type="matrix" values="0 0 0 0 0 0 0 0 0 0 0 0 0 0 0 0 0 0 0.25 0"/>
<feBlend mode="normal" in2="BackgroundImageFix" result="effect1_dropShadow_29_1592"/>
<feBlend mode="normal" in="SourceGraphic" in2="effect1_dropShadow_29_1592" result="shape"/>
</filter>
</defs>
</svg>
